<svg id="my-svg" width="100%" xmlns="http://www.w3.org/2000/svg" xmlns:xlink="http://www.w3.org/1999/xlink" class="statediagram" style="max-width: 5145.56px; background-color: white;" viewBox="0 0 5145.5625 676.0250244140625" role="graphics-document document" aria-roledescription="stateDiagram"><style>#my-svg{font-family:"trebuchet ms",verdana,arial,sans-serif;font-size:16px;fill:#333;}@keyframes edge-animation-frame{from{stroke-dashoffset:0;}}@keyframes dash{to{stroke-dashoffset:0;}}#my-svg .edge-animation-slow{stroke-dasharray:9,5!important;stroke-dashoffset:900;animation:dash 50s linear infinite;stroke-linecap:round;}#my-svg .edge-animation-fast{stroke-dasharray:9,5!important;stroke-dashoffset:900;animation:dash 20s linear infinite;stroke-linecap:round;}#my-svg .error-icon{fill:#552222;}#my-svg .error-text{fill:#552222;stroke:#552222;}#my-svg .edge-thickness-normal{stroke-width:1px;}#my-svg .edge-thickness-thick{stroke-width:3.5px;}#my-svg .edge-pattern-solid{stroke-dasharray:0;}#my-svg .edge-thickness-invisible{stroke-width:0;fill:none;}#my-svg .edge-pattern-dashed{stroke-dasharray:3;}#my-svg .edge-pattern-dotted{stroke-dasharray:2;}#my-svg .marker{fill:#333333;stroke:#333333;}#my-svg .marker.cross{stroke:#333333;}#my-svg svg{font-family:"trebuchet ms",verdana,arial,sans-serif;font-size:16px;}#my-svg p{margin:0;}#my-svg defs [id$="-barbEnd"]{fill:#333333;stroke:#333333;}#my-svg g.stateGroup text{fill:#9370DB;stroke:none;font-size:10px;}#my-svg g.stateGroup text{fill:#333;stroke:none;font-size:10px;}#my-svg g.stateGroup .state-title{font-weight:bolder;fill:#131300;}#my-svg g.stateGroup rect{fill:#ECECFF;stroke:#9370DB;}#my-svg g.stateGroup line{stroke:#333333;stroke-width:1;}#my-svg .transition{stroke:#333333;stroke-width:1;fill:none;}#my-svg .stateGroup .composit{fill:white;border-bottom:1px;}#my-svg .stateGroup .alt-composit{fill:#e0e0e0;border-bottom:1px;}#my-svg .state-note{stroke:#aaaa33;fill:#fff5ad;}#my-svg .state-note text{fill:black;stroke:none;font-size:10px;}#my-svg .stateLabel .box{stroke:none;stroke-width:0;fill:#ECECFF;opacity:0.5;}#my-svg .edgeLabel .label rect{fill:#ECECFF;opacity:0.5;}#my-svg .edgeLabel{background-color:rgba(232,232,232, 0.8);text-align:center;}#my-svg .edgeLabel p{background-color:rgba(232,232,232, 0.8);}#my-svg .edgeLabel rect{opacity:0.5;background-color:rgba(232,232,232, 0.8);fill:rgba(232,232,232, 0.8);}#my-svg .edgeLabel .label text{fill:#333;}#my-svg .label div .edgeLabel{color:#333;}#my-svg .stateLabel text{fill:#131300;font-size:10px;font-weight:bold;}#my-svg .node circle.state-start{fill:#333333;stroke:#333333;}#my-svg .node .fork-join{fill:#333333;stroke:#333333;}#my-svg .node circle.state-end{fill:#9370DB;stroke:white;stroke-width:1.5;}#my-svg .end-state-inner{fill:white;stroke-width:1.5;}#my-svg .node rect{fill:#ECECFF;stroke:#9370DB;stroke-width:1px;}#my-svg .node polygon{fill:#ECECFF;stroke:#9370DB;stroke-width:1px;}#my-svg [id$="-barbEnd"]{fill:#333333;}#my-svg .statediagram-cluster rect{fill:#ECECFF;stroke:#9370DB;stroke-width:1px;}#my-svg .cluster-label,#my-svg .nodeLabel{color:#131300;}#my-svg .statediagram-cluster rect.outer{rx:5px;ry:5px;}#my-svg .statediagram-state .divider{stroke:#9370DB;}#my-svg .statediagram-state .title-state{rx:5px;ry:5px;}#my-svg .statediagram-cluster.statediagram-cluster .inner{fill:white;}#my-svg .statediagram-cluster.statediagram-cluster-alt .inner{fill:#f0f0f0;}#my-svg .statediagram-cluster .inner{rx:0;ry:0;}#my-svg .statediagram-state rect.basic{rx:5px;ry:5px;}#my-svg .statediagram-state rect.divider{stroke-dasharray:10,10;fill:#f0f0f0;}#my-svg .note-edge{stroke-dasharray:5;}#my-svg .statediagram-note rect{fill:#fff5ad;stroke:#aaaa33;stroke-width:1px;rx:0;ry:0;}#my-svg .statediagram-note rect{fill:#fff5ad;stroke:#aaaa33;stroke-width:1px;rx:0;ry:0;}#my-svg .statediagram-note text{fill:black;}#my-svg .statediagram-note .nodeLabel{color:black;}#my-svg .statediagram .edgeLabel{color:red;}#my-svg [id$="-dependencyStart"],#my-svg [id$="-dependencyEnd"]{fill:#333333;stroke:#333333;stroke-width:1;}#my-svg .statediagramTitleText{text-anchor:middle;font-size:18px;fill:#333;}#my-svg [data-look="neo"].statediagram-cluster rect{fill:#ECECFF;stroke:#9370DB;stroke-width:1;}#my-svg [data-look="neo"].statediagram-cluster rect.outer{rx:5px;ry:5px;filter:drop-shadow(1px 2px 2px rgba(185, 185, 185, 1));}#my-svg .node .neo-node{stroke:#9370DB;}#my-svg [data-look="neo"].node rect,#my-svg [data-look="neo"].cluster rect,#my-svg [data-look="neo"].node polygon{stroke:#9370DB;filter:drop-shadow(1px 2px 2px rgba(185, 185, 185, 1));}#my-svg [data-look="neo"].node path{stroke:#9370DB;stroke-width:1px;}#my-svg [data-look="neo"].node .outer-path{filter:drop-shadow(1px 2px 2px rgba(185, 185, 185, 1));}#my-svg [data-look="neo"].node .neo-line path{stroke:#9370DB;filter:none;}#my-svg [data-look="neo"].node circle{stroke:#9370DB;filter:drop-shadow(1px 2px 2px rgba(185, 185, 185, 1));}#my-svg [data-look="neo"].node circle .state-start{fill:#000000;}#my-svg [data-look="neo"].icon-shape .icon{fill:#9370DB;filter:drop-shadow(1px 2px 2px rgba(185, 185, 185, 1));}#my-svg [data-look="neo"].icon-shape .icon-neo path{stroke:#9370DB;filter:drop-shadow(1px 2px 2px rgba(185, 185, 185, 1));}#my-svg :root{--mermaid-font-family:"trebuchet ms",verdana,arial,sans-serif;}</style><g><defs><marker id="my-svg_stateDiagram-barbEnd" refX="19" refY="7" markerWidth="20" markerHeight="14" markerUnits="userSpaceOnUse" orient="auto"><path d="M 19,7 L9,13 L14,7 L9,1 Z"/></marker></defs><g class="root"><g class="clusters"><g class="note-cluster" id="my-svg-state-hitl----parent-21"><rect x="3070.015625" y="8" width="280" height="220" fill="none"/></g><g class="note-cluster" id="my-svg-state-preparing----parent-22"><rect x="3571.609375" y="191.5" width="246.3125" height="148" fill="none"/></g><g class="note-cluster" id="my-svg-state-building----parent-23"><rect x="4249.0625" y="19.97499999962747" width="280" height="220" fill="none"/></g><g class="note-cluster" id="my-svg-state-shipped----parent-24"><rect x="4900.3125" y="520.0250000003725" width="237.25" height="148" fill="none"/></g></g><g class="edgePaths"><path d="M22,330L33.495,330C44.99,330,67.979,330,90.969,330C113.958,330,136.948,330,148.443,330L159.938,330" id="my-svg-edge0" class="edge-thickness-normal edge-pattern-solid transition" style="fill:none;;;fill:none" data-edge="true" data-et="edge" data-id="edge0" data-points="W3sieCI6MjIsInkiOjMzMH0seyJ4Ijo5MC45Njg3NSwieSI6MzMwfSx7IngiOjE1OS45Mzc1LCJ5IjozMzB9XQ==" data-look="classic" marker-end="url(#my-svg_stateDiagram-barbEnd)"/><path d="M202.859,330L217.461,330C232.063,330,261.266,330,290.469,330C319.672,330,348.875,330,363.477,330L378.078,330" id="my-svg-edge1" class="edge-thickness-normal edge-pattern-solid transition" style="fill:none;;;fill:none" data-edge="true" data-et="edge" data-id="edge1" data-points="W3sieCI6MjAyLjg1OTM3NSwieSI6MzMwfSx7IngiOjI5MC40Njg3NSwieSI6MzMwfSx7IngiOjM3OC4wNzgxMjUsInkiOjMzMH1d" data-look="classic" marker-end="url(#my-svg_stateDiagram-barbEnd)"/><path d="M454.938,330L472.56,330C490.182,330,525.427,330,560.672,330C595.917,330,631.161,330,648.784,330L666.406,330" id="my-svg-edge2" class="edge-thickness-normal edge-pattern-solid transition" style="fill:none;;;fill:none" data-edge="true" data-et="edge" data-id="edge2" data-points="W3sieCI6NDU0LjkzNzUsInkiOjMzMH0seyJ4Ijo1NjAuNjcxODc1LCJ5IjozMzB9LHsieCI6NjY2LjQwNjI1LCJ5IjozMzB9XQ==" data-look="classic" marker-end="url(#my-svg_stateDiagram-barbEnd)"/><path d="M760.75,330L777.035,330C793.32,330,825.891,330,858.461,330C891.031,330,923.602,330,939.887,330L956.172,330" id="my-svg-edge3" class="edge-thickness-normal edge-pattern-solid transition" style="fill:none;;;fill:none" data-edge="true" data-et="edge" data-id="edge3" data-points="W3sieCI6NzYwLjc1LCJ5IjozMzB9LHsieCI6ODU4LjQ2MDkzNzUsInkiOjMzMH0seyJ4Ijo5NTYuMTcxODc1LCJ5IjozMzB9XQ==" data-look="classic" marker-end="url(#my-svg_stateDiagram-barbEnd)"/><path d="M1033.797,330L1051.217,330C1068.638,330,1103.479,330,1138.32,330C1173.161,330,1208.003,330,1225.423,330L1242.844,330" id="my-svg-edge4" class="edge-thickness-normal edge-pattern-solid transition" style="fill:none;;;fill:none" data-edge="true" data-et="edge" data-id="edge4" data-points="W3sieCI6MTAzMy43OTY4NzUsInkiOjMzMH0seyJ4IjoxMTM4LjMyMDMxMjUsInkiOjMzMH0seyJ4IjoxMjQyLjg0Mzc1LCJ5IjozMzB9XQ==" data-look="classic" marker-end="url(#my-svg_stateDiagram-barbEnd)"/><path d="M1321.375,330L1339.794,330C1358.214,330,1395.052,330,1431.891,330C1468.729,330,1505.568,330,1523.987,330L1542.406,330" id="my-svg-edge5" class="edge-thickness-normal edge-pattern-solid transition" style="fill:none;;;fill:none" data-edge="true" data-et="edge" data-id="edge5" data-points="W3sieCI6MTMyMS4zNzUsInkiOjMzMH0seyJ4IjoxNDMxLjg5MDYyNSwieSI6MzMwfSx7IngiOjE1NDIuNDA2MjUsInkiOjMzMH1d" data-look="classic" marker-end="url(#my-svg_stateDiagram-barbEnd)"/><path d="M1623.969,330L1644.452,330C1664.935,330,1705.901,330,1746.867,330C1787.833,330,1828.799,330,1849.283,330L1869.766,330" id="my-svg-edge6" class="edge-thickness-normal edge-pattern-solid transition" style="fill:none;;;fill:none" data-edge="true" data-et="edge" data-id="edge6" data-points="W3sieCI6MTYyMy45Njg3NSwieSI6MzMwfSx7IngiOjE3NDYuODY3MTg3NSwieSI6MzMwfSx7IngiOjE4NjkuNzY1NjI1LCJ5IjozMzB9XQ==" data-look="classic" marker-end="url(#my-svg_stateDiagram-barbEnd)"/><path d="M1935.438,330L1951.652,330C1967.867,330,2000.297,330,2032.727,330C2065.156,330,2097.586,330,2113.801,330L2130.016,330" id="my-svg-edge7" class="edge-thickness-normal edge-pattern-solid transition" style="fill:none;;;fill:none" data-edge="true" data-et="edge" data-id="edge7" data-points="W3sieCI6MTkzNS40Mzc1LCJ5IjozMzB9LHsieCI6MjAzMi43MjY1NjI1LCJ5IjozMzB9LHsieCI6MjEzMC4wMTU2MjUsInkiOjMzMH1d" data-look="classic" marker-end="url(#my-svg_stateDiagram-barbEnd)"/><path d="M2232.547,322.823L2250.195,320.353C2267.844,317.882,2303.141,312.941,2338.438,313.084C2373.734,313.228,2409.031,318.455,2426.68,321.069L2444.328,323.683" id="my-svg-edge8" class="edge-thickness-normal edge-pattern-solid transition" style="fill:none;;;fill:none" data-edge="true" data-et="edge" data-id="edge8" data-points="W3sieCI6MjIzMi41NDY4NzUsInkiOjMyMi44MjM0MjQxMzk5ODgwNX0seyJ4IjoyMzM4LjQzNzUsInkiOjMwOH0seyJ4IjoyNDQ0LjMyODEyNSwieSI6MzIzLjY4MjU0OTcwMDIyMDl9XQ==" data-look="classic" marker-end="url(#my-svg_stateDiagram-barbEnd)"/><path d="M2444.328,336.317L2426.68,338.931C2409.031,341.545,2373.734,346.772,2338.438,346.916C2303.141,347.059,2267.844,342.118,2250.195,339.647L2232.547,337.177" id="my-svg-edge9" class="edge-thickness-normal edge-pattern-solid transition" style="fill:none;;;fill:none" data-edge="true" data-et="edge" data-id="edge9" data-points="W3sieCI6MjQ0NC4zMjgxMjUsInkiOjMzNi4zMTc0NTAyOTk3NzkxfSx7IngiOjIzMzguNDM3NSwieSI6MzUyfSx7IngiOjIyMzIuNTQ2ODc1LCJ5IjozMzcuMTc2NTc1ODYwMDExOTV9XQ==" data-look="classic" marker-end="url(#my-svg_stateDiagram-barbEnd)"/><path d="M2529.641,330L2550.474,330C2571.307,330,2612.974,330,2654.641,330C2696.307,330,2737.974,330,2758.807,330L2779.641,330" id="my-svg-edge10" class="edge-thickness-normal edge-pattern-solid transition" style="fill:none;;;fill:none" data-edge="true" data-et="edge" data-id="edge10" data-points="W3sieCI6MjUyOS42NDA2MjUsInkiOjMzMH0seyJ4IjoyNjU0LjY0MDYyNSwieSI6MzMwfSx7IngiOjI3NzkuNjQwNjI1LCJ5IjozMzB9XQ==" data-look="classic" marker-end="url(#my-svg_stateDiagram-barbEnd)"/><path d="M2820.016,330L2840.849,330C2861.682,330,2903.349,330,2945.016,330C2986.682,330,3028.349,330,3065.454,330C3102.56,330,3135.104,330,3151.376,330L3167.648,330" id="my-svg-edge11" class="edge-thickness-normal edge-pattern-solid transition" style="fill:none;;;fill:none" data-edge="true" data-et="edge" data-id="edge11" data-points="W3sieCI6MjgyMC4wMTU2MjUsInkiOjMzMH0seyJ4IjoyOTQ1LjAxNTYyNSwieSI6MzMwfSx7IngiOjMwNzAuMDE1NjI1LCJ5IjozMzB9LHsieCI6MzE2Ny42NDg0Mzc1LCJ5IjozMzB9XQ==" data-look="classic" marker-end="url(#my-svg_stateDiagram-barbEnd)"/><path d="M2820.016,349.887L2840.849,370.41C2861.682,390.933,2903.349,431.979,2945.016,452.502C2986.682,473.025,3028.349,473.025,3072.516,473.025C3116.682,473.025,3163.349,473.025,3210.016,473.025C3256.682,473.025,3303.349,473.025,3345.148,473.025C3386.948,473.025,3423.88,473.025,3460.813,473.025C3497.745,473.025,3534.677,473.025,3573.669,473.025C3612.661,473.025,3653.714,473.025,3694.766,473.025C3735.818,473.025,3776.87,473.025,3814.529,473.025C3852.188,473.025,3886.453,473.025,3926.818,473.025C3967.182,473.025,4013.646,473.025,4055.673,473.025C4097.701,473.025,4135.292,473.025,4166.784,473.025C4198.276,473.025,4223.669,473.025,4254.928,475.146C4286.188,477.268,4323.313,481.511,4341.875,483.632L4360.438,485.754" id="my-svg-edge12" class="edge-thickness-normal edge-pattern-solid transition" style="fill:none;;;fill:none" data-edge="true" data-et="edge" data-id="edge12" data-points="W3sieCI6MjgyMC4wMTU2MjUsInkiOjM0OS44ODY4MTY2MTY0OTYwNX0seyJ4IjoyOTQ1LjAxNTYyNSwieSI6NDczLjAyNTAwMDAwMDM3MjUzfSx7IngiOjMwNzAuMDE1NjI1LCJ5Ijo0NzMuMDI1MDAwMDAwMzcyNTN9LHsieCI6MzIxMC4wMTU2MjUsInkiOjQ3My4wMjUwMDAwMDAzNzI1M30seyJ4IjozMzUwLjAxNTYyNSwieSI6NDczLjAyNTAwMDAwMDM3MjUzfSx7IngiOjM0NjAuODEyNSwieSI6NDczLjAyNTAwMDAwMDM3MjUzfSx7IngiOjM1NzEuNjA5Mzc1LCJ5Ijo0NzMuMDI1MDAwMDAwMzcyNTN9LHsieCI6MzY5NC43NjU2MjUsInkiOjQ3My4wMjUwMDAwMDAzNzI1M30seyJ4IjozODE3LjkyMTg3NSwieSI6NDczLjAyNTAwMDAwMDM3MjUzfSx7IngiOjM5MjAuNzE4NzUsInkiOjQ3My4wMjUwMDAwMDAzNzI1M30seyJ4Ijo0MDYwLjEwOTM3NSwieSI6NDczLjAyNTAwMDAwMDM3MjUzfSx7IngiOjQxNzIuODgyODEyNSwieSI6NDczLjAyNTAwMDAwMDM3MjUzfSx7IngiOjQyNDkuMDYyNSwieSI6NDczLjAyNTAwMDAwMDM3MjUzfSx7IngiOjQzNjAuNDM3NSwieSI6NDg1Ljc1MzU3MTQyODk0NH1d" data-look="classic" marker-end="url(#my-svg_stateDiagram-barbEnd)"/><path d="M3252.383,349.519L3268.655,357.016C3284.927,364.513,3317.471,379.506,3352.21,387.003C3386.948,394.5,3423.88,394.5,3460.813,394.5C3497.745,394.5,3534.677,394.5,3566.926,394.5C3599.174,394.5,3626.74,394.5,3640.522,394.5L3654.305,394.5" id="my-svg-edge13" class="edge-thickness-normal edge-pattern-solid transition" style="fill:none;;;fill:none" data-edge="true" data-et="edge" data-id="edge13" data-points="W3sieCI6MzI1Mi4zODI4MTI1LCJ5IjozNDkuNTE5MTY4NTI2Nzg1NzN9LHsieCI6MzM1MC4wMTU2MjUsInkiOjM5NC41fSx7IngiOjM0NjAuODEyNSwieSI6Mzk0LjV9LHsieCI6MzU3MS42MDkzNzUsInkiOjM5NC41fSx7IngiOjM2NTQuMzA0Njg3NSwieSI6Mzk0LjV9XQ==" data-look="classic" marker-end="url(#my-svg_stateDiagram-barbEnd)"/><path d="M3735.227,394.5L3749.009,394.5C3762.792,394.5,3790.357,394.5,3821.272,394.5C3852.188,394.5,3886.453,394.5,3920.719,394.5C3954.984,394.5,3989.25,394.5,4006.383,394.5L4023.516,394.5" id="my-svg-edge14" class="edge-thickness-normal edge-pattern-solid transition" style="fill:none;;;fill:none" data-edge="true" data-et="edge" data-id="edge14" data-points="W3sieCI6MzczNS4yMjY1NjI1LCJ5IjozOTQuNX0seyJ4IjozODE3LjkyMTg3NSwieSI6Mzk0LjV9LHsieCI6MzkyMC43MTg3NSwieSI6Mzk0LjV9LHsieCI6NDAyMy41MTU2MjUsInkiOjM5NC41fV0=" data-look="classic" marker-end="url(#my-svg_stateDiagram-barbEnd)"/><path d="M4096.703,394.5L4109.4,394.5C4122.096,394.5,4147.49,394.5,4172.883,394.5C4198.276,394.5,4223.669,394.5,4259.691,394.5C4295.712,394.5,4342.362,394.5,4365.687,394.5L4389.012,394.5" id="my-svg-building-cyclic-special-1" class="edge-thickness-normal edge-pattern-solid transition" style="fill:none;;;fill:none" data-edge="true" data-et="edge" data-id="building-cyclic-special-1" data-points="W3sieCI6NDA5Ni43MDMxMjUsInkiOjM5NC41fSx7IngiOjQxNzIuODgyODEyNSwieSI6Mzk0LjV9LHsieCI6NDI0OS4wNjI1LCJ5IjozOTQuNX0seyJ4Ijo0Mzg5LjAxMjQ5OTk5OTI1NSwieSI6Mzk0LjV9XQ==" data-look="classic"/><path d="M4389.113,394.5L4412.438,394.5C4435.763,394.5,4482.413,394.5,4526.571,394.5C4570.729,394.5,4612.396,394.5,4659.992,397.42C4707.587,400.34,4761.112,406.18,4787.875,409.1L4814.637,412.02" id="my-svg-building-cyclic-special-mid" class="edge-thickness-normal edge-pattern-solid transition" style="fill:none;;;fill:none" data-edge="true" data-et="edge" data-id="building-cyclic-special-mid" data-points="W3sieCI6NDM4OS4xMTI1MDAwMDA3NDUsInkiOjM5NC41fSx7IngiOjQ1MjkuMDYyNSwieSI6Mzk0LjV9LHsieCI6NDY1NC4wNjI1LCJ5IjozOTQuNX0seyJ4Ijo0ODE0LjYzNzQ5OTk5OTI1NSwieSI6NDEyLjAxOTU0NDc0NzM3MjgzfV0=" data-look="classic"/><path d="M4814.637,412.03L4787.875,414.95C4761.112,417.87,4707.587,423.71,4659.992,426.63C4612.396,429.55,4570.729,429.55,4526.563,429.55C4482.396,429.55,4435.729,429.55,4389.063,429.55C4342.396,429.55,4295.729,429.55,4259.699,429.55C4223.669,429.55,4198.276,429.55,4172.883,425.604C4147.49,421.658,4122.096,413.766,4109.4,409.819L4096.703,405.873" id="my-svg-building-cyclic-special-2" class="edge-thickness-normal edge-pattern-solid transition" style="fill:none;;;fill:none" data-edge="true" data-et="edge" data-id="building-cyclic-special-2" data-points="W3sieCI6NDgxNC42Mzc0OTk5OTkyNTUsInkiOjQxMi4wMzA0NTUyNTMzNzIyfSx7IngiOjQ2NTQuMDYyNSwieSI6NDI5LjU1MDAwMDAwMDc0NTA2fSx7IngiOjQ1MjkuMDYyNSwieSI6NDI5LjU1MDAwMDAwMDc0NTA2fSx7IngiOjQzODkuMDYyNSwieSI6NDI5LjU1MDAwMDAwMDc0NTA2fSx7IngiOjQyNDkuMDYyNSwieSI6NDI5LjU1MDAwMDAwMDc0NTA2fSx7IngiOjQxNzIuODgyODEyNSwieSI6NDI5LjU1MDAwMDAwMDc0NTA2fSx7IngiOjQwOTYuNzAzMTI1LCJ5Ijo0MDUuODczMzQyNTcwMzgzOH1d" data-look="classic" marker-end="url(#my-svg_stateDiagram-barbEnd)"/><path d="M4092.307,374.5L4105.737,366.158C4119.166,357.817,4146.024,341.133,4172.15,332.792C4198.276,324.45,4223.669,324.45,4253.146,324.45C4282.622,324.45,4316.182,324.45,4332.962,324.45L4349.742,324.45" id="my-svg-edge16" class="edge-thickness-normal edge-pattern-solid transition" style="fill:none;;;fill:none" data-edge="true" data-et="edge" data-id="edge16" data-points="W3sieCI6NDA5Mi4zMDczNTg1ODI4MTI0LCJ5IjozNzQuNX0seyJ4Ijo0MTcyLjg4MjgxMjUsInkiOjMyNC40NDk5OTk5OTkyNTQ5NH0seyJ4Ijo0MjQ5LjA2MjUsInkiOjMyNC40NDk5OTk5OTkyNTQ5NH0seyJ4Ijo0MzQ5Ljc0MjE4NzUsInkiOjMyNC40NDk5OTk5OTkyNTQ5NH1d" data-look="classic" marker-end="url(#my-svg_stateDiagram-barbEnd)"/><path d="M4080.516,414.5L4095.911,429.588C4111.305,444.675,4142.094,474.85,4170.185,489.938C4198.276,505.025,4223.669,505.025,4254.928,502.904C4286.188,500.782,4323.313,496.539,4341.875,494.418L4360.438,492.296" id="my-svg-edge17" class="edge-thickness-normal edge-pattern-solid transition" style="fill:none;;;fill:none" data-edge="true" data-et="edge" data-id="edge17" data-points="W3sieCI6NDA4MC41MTYyMzk5NjI2MDkyLCJ5Ijo0MTQuNX0seyJ4Ijo0MTcyLjg4MjgxMjUsInkiOjUwNS4wMjUwMDAwMDAzNzI1M30seyJ4Ijo0MjQ5LjA2MjUsInkiOjUwNS4wMjUwMDAwMDAzNzI1M30seyJ4Ijo0MzYwLjQzNzUsInkiOjQ5Mi4yOTY0Mjg1NzE4MDExfV0=" data-look="classic" marker-end="url(#my-svg_stateDiagram-barbEnd)"/><path d="M4428.383,324.45L4445.163,324.45C4461.943,324.45,4495.503,324.45,4533.116,324.45C4570.729,324.45,4612.396,324.45,4654.063,324.45C4695.729,324.45,4737.396,324.45,4758.229,324.45L4779.063,324.45" id="my-svg-edge18" class="edge-thickness-normal edge-pattern-solid transition" style="fill:none;;;fill:none" data-edge="true" data-et="edge" data-id="edge18" data-points="W3sieCI6NDQyOC4zODI4MTI1LCJ5IjozMjQuNDQ5OTk5OTk5MjU0OTR9LHsieCI6NDUyOS4wNjI1LCJ5IjozMjQuNDQ5OTk5OTk5MjU0OTR9LHsieCI6NDY1NC4wNjI1LCJ5IjozMjQuNDQ5OTk5OTk5MjU0OTR9LHsieCI6NDc3OS4wNjI1LCJ5IjozMjQuNDQ5OTk5OTk5MjU0OTR9XQ==" data-look="classic" marker-end="url(#my-svg_stateDiagram-barbEnd)"/><path d="M4850.313,324.45L4854.479,324.45C4858.646,324.45,4866.979,324.45,4875.313,324.45C4883.646,324.45,4891.979,324.45,4915.197,348.789C4938.415,373.128,4976.517,421.805,4995.568,446.144L5014.619,470.483" id="my-svg-edge19" class="edge-thickness-normal edge-pattern-solid transition" style="fill:none;;;fill:none" data-edge="true" data-et="edge" data-id="edge19" data-points="W3sieCI6NDg1MC4zMTI1LCJ5IjozMjQuNDQ5OTk5OTk5MjU0OTR9LHsieCI6NDg3NS4zMTI1LCJ5IjozMjQuNDQ5OTk5OTk5MjU0OTR9LHsieCI6NDkwMC4zMTI1LCJ5IjozMjQuNDQ5OTk5OTk5MjU0OTR9LHsieCI6NTAxNC42MTg3Nzk1MjQwNzYsInkiOjQ3MC40ODI1OTU2NzQzNTU3fV0=" data-look="classic" marker-end="url(#my-svg_stateDiagram-barbEnd)"/><path d="M4417.688,489.025L4436.25,489.025C4454.813,489.025,4491.938,489.025,4531.333,489.025C4570.729,489.025,4612.396,489.025,4660,489.025C4707.604,489.025,4761.146,489.025,4798.021,489.025C4834.896,489.025,4855.104,489.025,4869.375,489.025C4883.646,489.025,4891.979,489.025,4914.756,486.982C4937.533,484.938,4974.753,480.851,4993.363,478.808L5011.973,476.765" id="my-svg-edge20" class="edge-thickness-normal edge-pattern-solid transition" style="fill:none;;;fill:none" data-edge="true" data-et="edge" data-id="edge20" data-points="W3sieCI6NDQxNy42ODc1LCJ5Ijo0ODkuMDI1MDAwMDAwMzcyNTN9LHsieCI6NDUyOS4wNjI1LCJ5Ijo0ODkuMDI1MDAwMDAwMzcyNTN9LHsieCI6NDY1NC4wNjI1LCJ5Ijo0ODkuMDI1MDAwMDAwMzcyNTN9LHsieCI6NDgxNC42ODc1LCJ5Ijo0ODkuMDI1MDAwMDAwMzcyNTN9LHsieCI6NDg3NS4zMTI1LCJ5Ijo0ODkuMDI1MDAwMDAwMzcyNTN9LHsieCI6NDkwMC4zMTI1LCJ5Ijo0ODkuMDI1MDAwMDAwMzcyNTN9LHsieCI6NTAxMS45NzI3MTEzMDk0MDgsInkiOjQ3Ni43NjQ3MzIzMzA0MzI1fV0=" data-look="classic" marker-end="url(#my-svg_stateDiagram-barbEnd)"/><path d="M2813.525,310L2835.44,278C2857.355,246,2901.185,182,2943.934,150C2986.682,118,3028.349,118,3053.349,118C3078.349,118,3086.682,118,3090.849,118L3095.016,118" id="my-svg-hitl-hitl----note-21" class="edge-thickness-normal edge-pattern-solid transition note-edge" style="fill:none;;;fill:none" data-edge="true" data-et="edge" data-id="hitl-hitl----note-21" data-points="W3sieCI6MjgxMy41MjUwNTg5NjIyNjQsInkiOjMxMH0seyJ4IjoyOTQ1LjAxNTYyNSwieSI6MTE4fSx7IngiOjMwNzAuMDE1NjI1LCJ5IjoxMTh9LHsieCI6MzA5NS4wMTU2MjUsInkiOjExOH1d" data-look="classic"/><path d="M3252.383,310.481L3268.655,302.984C3284.927,295.487,3317.471,280.494,3352.21,272.997C3386.948,265.5,3423.88,265.5,3460.813,265.5C3497.745,265.5,3534.677,265.5,3557.31,265.5C3579.943,265.5,3588.276,265.5,3592.443,265.5L3596.609,265.5" id="my-svg-preparing-preparing----note-22" class="edge-thickness-normal edge-pattern-solid transition note-edge" style="fill:none;;;fill:none" data-edge="true" data-et="edge" data-id="preparing-preparing----note-22" data-points="W3sieCI6MzI1Mi4zODI4MTI1LCJ5IjozMTAuNDgwODMxNDczMjE0Mjd9LHsieCI6MzM1MC4wMTU2MjUsInkiOjI2NS41fSx7IngiOjM0NjAuODEyNSwieSI6MjY1LjV9LHsieCI6MzU3MS42MDkzNzUsInkiOjI2NS41fSx7IngiOjM1OTYuNjA5Mzc1LCJ5IjoyNjUuNX1d" data-look="classic"/><path d="M4068.636,374.5L4086.01,333.746C4103.385,292.992,4138.134,211.483,4168.205,170.729C4198.276,129.975,4223.669,129.975,4240.533,129.975C4257.396,129.975,4265.729,129.975,4269.896,129.975L4274.063,129.975" id="my-svg-building-building----note-23" class="edge-thickness-normal edge-pattern-solid transition note-edge" style="fill:none;;;fill:none" data-edge="true" data-et="edge" data-id="building-building----note-23" data-points="W3sieCI6NDA2OC42MzU4NjExNTQ0MTU2LCJ5IjozNzQuNX0seyJ4Ijo0MTcyLjg4MjgxMjUsInkiOjEyOS45NzQ5OTk5OTk2Mjc0N30seyJ4Ijo0MjQ5LjA2MjUsInkiOjEyOS45NzQ5OTk5OTk2Mjc0N30seyJ4Ijo0Mjc0LjA2MjUsInkiOjEyOS45NzQ5OTk5OTk2Mjc0N31d" data-look="classic"/><path d="M4819.185,344.45L4828.54,386.046C4837.894,427.642,4856.603,510.833,4870.125,552.429C4883.646,594.025,4891.979,594.025,4900.313,594.025C4908.646,594.025,4916.979,594.025,4921.146,594.025L4925.313,594.025" id="my-svg-shipped-shipped----note-24" class="edge-thickness-normal edge-pattern-solid transition note-edge" style="fill:none;;;fill:none" data-edge="true" data-et="edge" data-id="shipped-shipped----note-24" data-points="W3sieCI6NDgxOS4xODUzMjA2NDM1ODcsInkiOjM0NC40NDk5OTk5OTkyNTQ5NH0seyJ4Ijo0ODc1LjMxMjUsInkiOjU5NC4wMjUwMDAwMDAzNzI1fSx7IngiOjQ5MDAuMzEyNSwieSI6NTk0LjAyNTAwMDAwMDM3MjV9LHsieCI6NDkyNS4zMTI1LCJ5Ijo1OTQuMDI1MDAwMDAwMzcyNX1d" data-look="classic"/></g><g class="edgeLabels"><g class="edgeLabel" transform="translate(90.96875, 330)"><g class="label" data-id="edge0" transform="translate(-43.96875, -12)"><foreignObject width="87.9375" height="24"><div xmlns="http://www.w3.org/1999/xhtml" class="labelBkg" style="display: table-cell; white-space: nowrap; line-height: 1.5; max-width: 200px; text-align: center;"><span class="edgeLabel"><p>server boots</p></span></div></foreignObject></g></g><g class="edgeLabel" transform="translate(290.46875, 330)"><g class="label" data-id="edge1" transform="translate(-62.609375, -12)"><foreignObject width="125.21875" height="24"><div xmlns="http://www.w3.org/1999/xhtml" class="labelBkg" style="display: table-cell; white-space: nowrap; line-height: 1.5; max-width: 200px; text-align: center;"><span class="edgeLabel"><p>user submits idea</p></span></div></foreignObject></g></g><g class="edgeLabel" transform="translate(560.671875, 330)"><g class="label" data-id="edge2" transform="translate(-80.734375, -12)"><foreignObject width="161.46875" height="24"><div xmlns="http://www.w3.org/1999/xhtml" class="labelBkg" style="display: table-cell; white-space: nowrap; line-height: 1.5; max-width: 200px; text-align: center;"><span class="edgeLabel"><p>data_structurer writes</p></span></div></foreignObject></g></g><g class="edgeLabel" transform="translate(858.4609375, 330)"><g class="label" data-id="edge3" transform="translate(-72.7109375, -12)"><foreignObject width="145.421875" height="24"><div xmlns="http://www.w3.org/1999/xhtml" class="labelBkg" style="display: table-cell; white-space: nowrap; line-height: 1.5; max-width: 200px; text-align: center;"><span class="edgeLabel"><p>market_analyst runs</p></span></div></foreignObject></g></g><g class="edgeLabel" transform="translate(1138.3203125, 330)"><g class="label" data-id="edge4" transform="translate(-79.5234375, -12)"><foreignObject width="159.046875" height="24"><div xmlns="http://www.w3.org/1999/xhtml" class="labelBkg" style="display: table-cell; white-space: nowrap; line-height: 1.5; max-width: 200px; text-align: center;"><span class="edgeLabel"><p>brand_designer writes</p></span></div></foreignObject></g></g><g class="edgeLabel" transform="translate(1431.890625, 330)"><g class="label" data-id="edge5" transform="translate(-85.515625, -12)"><foreignObject width="171.03125" height="24"><div xmlns="http://www.w3.org/1999/xhtml" class="labelBkg" style="display: table-cell; white-space: nowrap; line-height: 1.5; max-width: 200px; text-align: center;"><span class="edgeLabel"><p>business_planner writes</p></span></div></foreignObject></g></g><g class="edgeLabel" transform="translate(1746.8671875, 330)"><g class="label" data-id="edge6" transform="translate(-97.8984375, -12)"><foreignObject width="195.796875" height="24"><div xmlns="http://www.w3.org/1999/xhtml" class="labelBkg" style="display: table-cell; white-space: nowrap; line-height: 1.5; max-width: 200px; text-align: center;"><span class="edgeLabel"><p>strategist seals LeanCanvas</p></span></div></foreignObject></g></g><g class="edgeLabel" transform="translate(2032.7265625, 330)"><g class="label" data-id="edge7" transform="translate(-72.2890625, -12)"><foreignObject width="144.578125" height="24"><div xmlns="http://www.w3.org/1999/xhtml" class="labelBkg" style="display: table-cell; white-space: nowrap; line-height: 1.5; max-width: 200px; text-align: center;"><span class="edgeLabel"><p>CTO emits BuildPlan</p></span></div></foreignObject></g></g><g class="edgeLabel" transform="translate(2338.4375, 308)"><g class="label" data-id="edge8" transform="translate(-60.9921875, -12)"><foreignObject width="121.984375" height="24"><div xmlns="http://www.w3.org/1999/xhtml" class="labelBkg" style="display: table-cell; white-space: nowrap; line-height: 1.5; max-width: 200px; text-align: center;"><span class="edgeLabel"><p>reviewer decides</p></span></div></foreignObject></g></g><g class="edgeLabel" transform="translate(2338.4375, 352)"><g class="label" data-id="edge9" transform="translate(-80.890625, -12)"><foreignObject width="161.78125" height="24"><div xmlns="http://www.w3.org/1999/xhtml" class="labelBkg" style="display: table-cell; white-space: nowrap; line-height: 1.5; max-width: 200px; text-align: center;"><span class="edgeLabel"><p>send_back_with_notes</p></span></div></foreignObject></g></g><g class="edgeLabel" transform="translate(2654.640625, 330)"><g class="label" data-id="edge10" transform="translate(-100, -24)"><foreignObject width="200" height="48"><div xmlns="http://www.w3.org/1999/xhtml" class="labelBkg" style="display: table; white-space: break-spaces; line-height: 1.5; max-width: 200px; text-align: center; width: 200px;"><span class="edgeLabel"><p>reviewer approves + CEO calls start_factory</p></span></div></foreignObject></g></g><g class="edgeLabel" transform="translate(2945.015625, 330)"><g class="label" data-id="edge11" transform="translate(-100, -24)"><foreignObject width="200" height="48"><div xmlns="http://www.w3.org/1999/xhtml" class="labelBkg" style="display: table; white-space: break-spaces; line-height: 1.5; max-width: 200px; text-align: center; width: 200px;"><span class="edgeLabel"><p>POST /api/hitl approved (6s auto-approve)</p></span></div></foreignObject></g></g><g class="edgeLabel" transform="translate(3694.765625, 473.02500000037253)"><g class="label" data-id="edge12" transform="translate(-74.9453125, -12)"><foreignObject width="149.890625" height="24"><div xmlns="http://www.w3.org/1999/xhtml" class="labelBkg" style="display: table-cell; white-space: nowrap; line-height: 1.5; max-width: 200px; text-align: center;"><span class="edgeLabel"><p>rejected by operator</p></span></div></foreignObject></g></g><g class="edgeLabel" transform="translate(3460.8125, 394.5)"><g class="label" data-id="edge13" transform="translate(-85.796875, -12)"><foreignObject width="171.59375" height="24"><div xmlns="http://www.w3.org/1999/xhtml" class="labelBkg" style="display: table-cell; white-space: nowrap; line-height: 1.5; max-width: 200px; text-align: center;"><span class="edgeLabel"><p>POST /factory accepted</p></span></div></foreignObject></g></g><g class="edgeLabel" transform="translate(3920.71875, 394.5)"><g class="label" data-id="edge14" transform="translate(-77.796875, -12)"><foreignObject width="155.59375" height="24"><div xmlns="http://www.w3.org/1999/xhtml" class="labelBkg" style="display: table-cell; white-space: nowrap; line-height: 1.5; max-width: 200px; text-align: center;"><span class="edgeLabel"><p>factory RUN_STARTED</p></span></div></foreignObject></g></g><g class="edgeLabel"><g class="label" data-id="building-cyclic-special-1" transform="translate(0, 0)"><foreignObject width="0" height="0"><div xmlns="http://www.w3.org/1999/xhtml" class="labelBkg" style="display: table-cell; white-space: nowrap; line-height: 1.5; max-width: 200px; text-align: center;"><span class="edgeLabel"></span></div></foreignObject></g></g><g class="edgeLabel" transform="translate(4654.0625, 394.5)"><g class="label" data-id="building-cyclic-special-mid" transform="translate(-93.625, -12)"><foreignObject width="187.25" height="24"><div xmlns="http://www.w3.org/1999/xhtml" class="labelBkg" style="display: table-cell; white-space: nowrap; line-height: 1.5; max-width: 200px; text-align: center;"><span class="edgeLabel"><p>tool_result tick / progress</p></span></div></foreignObject></g></g><g class="edgeLabel"><g class="label" data-id="building-cyclic-special-2" transform="translate(0, 0)"><foreignObject width="0" height="0"><div xmlns="http://www.w3.org/1999/xhtml" class="labelBkg" style="display: table-cell; white-space: nowrap; line-height: 1.5; max-width: 200px; text-align: center;"><span class="edgeLabel"></span></div></foreignObject></g></g><g class="edgeLabel" transform="translate(4172.8828125, 324.44999999925494)"><g class="label" data-id="edge16" transform="translate(-51.1796875, -12)"><foreignObject width="102.359375" height="24"><div xmlns="http://www.w3.org/1999/xhtml" class="labelBkg" style="display: table-cell; white-space: nowrap; line-height: 1.5; max-width: 200px; text-align: center;"><span class="edgeLabel"><p>RUN_FINISHED</p></span></div></foreignObject></g></g><g class="edgeLabel" transform="translate(4172.8828125, 505.02500000037253)"><g class="label" data-id="edge17" transform="translate(-42.7890625, -12)"><foreignObject width="85.578125" height="24"><div xmlns="http://www.w3.org/1999/xhtml" class="labelBkg" style="display: table-cell; white-space: nowrap; line-height: 1.5; max-width: 200px; text-align: center;"><span class="edgeLabel"><p>RUN_ERROR</p></span></div></foreignObject></g></g><g class="edgeLabel" transform="translate(4654.0625, 324.44999999925494)"><g class="label" data-id="edge18" transform="translate(-100, -24)"><foreignObject width="200" height="48"><div xmlns="http://www.w3.org/1999/xhtml" class="labelBkg" style="display: table; white-space: break-spaces; line-height: 1.5; max-width: 200px; text-align: center; width: 200px;"><span class="edgeLabel"><p>SHIPPED token animates back</p></span></div></foreignObject></g></g><g class="edgeLabel"><g class="label" data-id="edge19" transform="translate(0, 0)"><foreignObject width="0" height="0"><div xmlns="http://www.w3.org/1999/xhtml" class="labelBkg" style="display: table-cell; white-space: nowrap; line-height: 1.5; max-width: 200px; text-align: center;"><span class="edgeLabel"></span></div></foreignObject></g></g><g class="edgeLabel"><g class="label" data-id="edge20" transform="translate(0, 0)"><foreignObject width="0" height="0"><div xmlns="http://www.w3.org/1999/xhtml" class="labelBkg" style="display: table-cell; white-space: nowrap; line-height: 1.5; max-width: 200px; text-align: center;"><span class="edgeLabel"></span></div></foreignObject></g></g><g class="edgeLabel"><g class="label" data-id="hitl-hitl----note-21" transform="translate(0, 0)"><foreignObject width="0" height="0"><div xmlns="http://www.w3.org/1999/xhtml" class="labelBkg" style="display: table-cell; white-space: nowrap; line-height: 1.5; max-width: 200px; text-align: center;"><span class="edgeLabel"></span></div></foreignObject></g></g><g class="edgeLabel"><g class="label" data-id="preparing-preparing----note-22" transform="translate(0, 0)"><foreignObject width="0" height="0"><div xmlns="http://www.w3.org/1999/xhtml" class="labelBkg" style="display: table-cell; white-space: nowrap; line-height: 1.5; max-width: 200px; text-align: center;"><span class="edgeLabel"></span></div></foreignObject></g></g><g class="edgeLabel"><g class="label" data-id="building-building----note-23" transform="translate(0, 0)"><foreignObject width="0" height="0"><div xmlns="http://www.w3.org/1999/xhtml" class="labelBkg" style="display: table-cell; white-space: nowrap; line-height: 1.5; max-width: 200px; text-align: center;"><span class="edgeLabel"></span></div></foreignObject></g></g><g class="edgeLabel"><g class="label" data-id="shipped-shipped----note-24" transform="translate(0, 0)"><foreignObject width="0" height="0"><div xmlns="http://www.w3.org/1999/xhtml" class="labelBkg" style="display: table-cell; white-space: nowrap; line-height: 1.5; max-width: 200px; text-align: center;"><span class="edgeLabel"></span></div></foreignObject></g></g></g><g class="nodes"><g class="node default" id="my-svg-state-root_start-0" data-look="classic" transform="translate(15, 330)"><circle class="state-start" r="7" width="14" height="14"/></g><g class="node  statediagram-state" id="my-svg-state-idle-1" data-look="classic" transform="translate(181.3984375, 330)"><rect class="basic label-container" style="" rx="5" ry="5" x="-21.4609375" y="-20" width="42.921875" height="40"/><g class="label" style="" transform="translate(-13.4609375, -12)"><rect/><foreignObject width="26.921875" height="24"><div xmlns="http://www.w3.org/1999/xhtml" style="display: table-cell; white-space: nowrap; line-height: 1.5; max-width: 200px; text-align: center;"><span class="nodeLabel markdown-node-label"><p>idle</p></span></div></foreignObject></g></g><g class="node  statediagram-state" id="my-svg-state-planning-2" data-look="classic" transform="translate(416.5078125, 330)"><rect class="basic label-container" style="" rx="5" ry="5" x="-38.4296875" y="-20" width="76.859375" height="40"/><g class="label" style="" transform="translate(-30.4296875, -12)"><rect/><foreignObject width="60.859375" height="24"><div xmlns="http://www.w3.org/1999/xhtml" style="display: table-cell; white-space: nowrap; line-height: 1.5; max-width: 200px; text-align: center;"><span class="nodeLabel markdown-node-label"><p>planning</p></span></div></foreignObject></g></g><g class="node  statediagram-state" id="my-svg-state-structuring-3" data-look="classic" transform="translate(713.578125, 330)"><rect class="basic label-container" style="" rx="5" ry="5" x="-47.171875" y="-20" width="94.34375" height="40"/><g class="label" style="" transform="translate(-39.171875, -12)"><rect/><foreignObject width="78.34375" height="24"><div xmlns="http://www.w3.org/1999/xhtml" style="display: table-cell; white-space: nowrap; line-height: 1.5; max-width: 200px; text-align: center;"><span class="nodeLabel markdown-node-label"><p>structuring</p></span></div></foreignObject></g></g><g class="node  statediagram-state" id="my-svg-state-scanning-4" data-look="classic" transform="translate(994.984375, 330)"><rect class="basic label-container" style="" rx="5" ry="5" x="-38.8125" y="-20" width="77.625" height="40"/><g class="label" style="" transform="translate(-30.8125, -12)"><rect/><foreignObject width="61.625" height="24"><div xmlns="http://www.w3.org/1999/xhtml" style="display: table-cell; white-space: nowrap; line-height: 1.5; max-width: 200px; text-align: center;"><span class="nodeLabel markdown-node-label"><p>scanning</p></span></div></foreignObject></g></g><g class="node  statediagram-state" id="my-svg-state-branding-5" data-look="classic" transform="translate(1282.109375, 330)"><rect class="basic label-container" style="" rx="5" ry="5" x="-39.265625" y="-20" width="78.53125" height="40"/><g class="label" style="" transform="translate(-31.265625, -12)"><rect/><foreignObject width="62.53125" height="24"><div xmlns="http://www.w3.org/1999/xhtml" style="display: table-cell; white-space: nowrap; line-height: 1.5; max-width: 200px; text-align: center;"><span class="nodeLabel markdown-node-label"><p>branding</p></span></div></foreignObject></g></g><g class="node  statediagram-state" id="my-svg-state-modeling-6" data-look="classic" transform="translate(1583.1875, 330)"><rect class="basic label-container" style="" rx="5" ry="5" x="-40.78125" y="-20" width="81.5625" height="40"/><g class="label" style="" transform="translate(-32.78125, -12)"><rect/><foreignObject width="65.5625" height="24"><div xmlns="http://www.w3.org/1999/xhtml" style="display: table-cell; white-space: nowrap; line-height: 1.5; max-width: 200px; text-align: center;"><span class="nodeLabel markdown-node-label"><p>modeling</p></span></div></foreignObject></g></g><g class="node  statediagram-state" id="my-svg-state-sealing-7" data-look="classic" transform="translate(1902.6015625, 330)"><rect class="basic label-container" style="" rx="5" ry="5" x="-32.8359375" y="-20" width="65.671875" height="40"/><g class="label" style="" transform="translate(-24.8359375, -12)"><rect/><foreignObject width="49.671875" height="24"><div xmlns="http://www.w3.org/1999/xhtml" style="display: table-cell; white-space: nowrap; line-height: 1.5; max-width: 200px; text-align: center;"><span class="nodeLabel markdown-node-label"><p>sealing</p></span></div></foreignObject></g></g><g class="node  statediagram-state" id="my-svg-state-architecting-9" data-look="classic" transform="translate(2181.28125, 330)"><rect class="basic label-container" style="" rx="5" ry="5" x="-51.265625" y="-20" width="102.53125" height="40"/><g class="label" style="" transform="translate(-43.265625, -12)"><rect/><foreignObject width="86.53125" height="24"><div xmlns="http://www.w3.org/1999/xhtml" style="display: table-cell; white-space: nowrap; line-height: 1.5; max-width: 200px; text-align: center;"><span class="nodeLabel markdown-node-label"><p>architecting</p></span></div></foreignObject></g></g><g class="node  statediagram-state" id="my-svg-state-reviewing-10" data-look="classic" transform="translate(2486.984375, 330)"><rect class="basic label-container" style="" rx="5" ry="5" x="-42.65625" y="-20" width="85.3125" height="40"/><g class="label" style="" transform="translate(-34.65625, -12)"><rect/><foreignObject width="69.3125" height="24"><div xmlns="http://www.w3.org/1999/xhtml" style="display: table-cell; white-space: nowrap; line-height: 1.5; max-width: 200px; text-align: center;"><span class="nodeLabel markdown-node-label"><p>reviewing</p></span></div></foreignObject></g></g><g class="node  statediagram-state" id="my-svg-state-hitl-21" data-look="classic" transform="translate(2799.828125, 330)"><rect class="basic label-container" style="" rx="5" ry="5" x="-20.1875" y="-20" width="40.375" height="40"/><g class="label" style="" transform="translate(-12.1875, -12)"><rect/><foreignObject width="24.375" height="24"><div xmlns="http://www.w3.org/1999/xhtml" style="display: table-cell; white-space: nowrap; line-height: 1.5; max-width: 200px; text-align: center;"><span class="nodeLabel markdown-node-label"><p>hitl</p></span></div></foreignObject></g></g><g class="node  statediagram-state" id="my-svg-state-preparing-22" data-look="classic" transform="translate(3210.015625, 330)"><rect class="basic label-container" style="" rx="5" ry="5" x="-42.3671875" y="-20" width="84.734375" height="40"/><g class="label" style="" transform="translate(-34.3671875, -12)"><rect/><foreignObject width="68.734375" height="24"><div xmlns="http://www.w3.org/1999/xhtml" style="display: table-cell; white-space: nowrap; line-height: 1.5; max-width: 200px; text-align: center;"><span class="nodeLabel markdown-node-label"><p>preparing</p></span></div></foreignObject></g></g><g class="node  statediagram-state" id="my-svg-state-failed-20" data-look="classic" transform="translate(4389.0625, 489.02500000037253)"><rect class="basic label-container" style="" rx="5" ry="5" x="-28.625" y="-20" width="57.25" height="40"/><g class="label" style="" transform="translate(-20.625, -12)"><rect/><foreignObject width="41.25" height="24"><div xmlns="http://www.w3.org/1999/xhtml" style="display: table-cell; white-space: nowrap; line-height: 1.5; max-width: 200px; text-align: center;"><span class="nodeLabel markdown-node-label"><p>failed</p></span></div></foreignObject></g></g><g class="node  statediagram-state" id="my-svg-state-launched-14" data-look="classic" transform="translate(3694.765625, 394.5)"><rect class="basic label-container" style="" rx="5" ry="5" x="-40.4609375" y="-20" width="80.921875" height="40"/><g class="label" style="" transform="translate(-32.4609375, -12)"><rect/><foreignObject width="64.921875" height="24"><div xmlns="http://www.w3.org/1999/xhtml" style="display: table-cell; white-space: nowrap; line-height: 1.5; max-width: 200px; text-align: center;"><span class="nodeLabel markdown-node-label"><p>launched</p></span></div></foreignObject></g></g><g class="node  statediagram-state" id="my-svg-state-building-23" data-look="classic" transform="translate(4060.109375, 394.5)"><rect class="basic label-container" style="" rx="5" ry="5" x="-36.59375" y="-20" width="73.1875" height="40"/><g class="label" style="" transform="translate(-28.59375, -12)"><rect/><foreignObject width="57.1875" height="24"><div xmlns="http://www.w3.org/1999/xhtml" style="display: table-cell; white-space: nowrap; line-height: 1.5; max-width: 200px; text-align: center;"><span class="nodeLabel markdown-node-label"><p>building</p></span></div></foreignObject></g></g><g class="node  statediagram-state" id="my-svg-state-returned-18" data-look="classic" transform="translate(4389.0625, 324.44999999925494)"><rect class="basic label-container" style="" rx="5" ry="5" x="-39.3203125" y="-20" width="78.640625" height="40"/><g class="label" style="" transform="translate(-31.3203125, -12)"><rect/><foreignObject width="62.640625" height="24"><div xmlns="http://www.w3.org/1999/xhtml" style="display: table-cell; white-space: nowrap; line-height: 1.5; max-width: 200px; text-align: center;"><span class="nodeLabel markdown-node-label"><p>returned</p></span></div></foreignObject></g></g><g class="node  statediagram-state" id="my-svg-state-shipped-24" data-look="classic" transform="translate(4814.6875, 324.44999999925494)"><rect class="basic label-container" style="" rx="5" ry="5" x="-35.625" y="-20" width="71.25" height="40"/><g class="label" style="" transform="translate(-27.625, -12)"><rect/><foreignObject width="55.25" height="24"><div xmlns="http://www.w3.org/1999/xhtml" style="display: table-cell; white-space: nowrap; line-height: 1.5; max-width: 200px; text-align: center;"><span class="nodeLabel markdown-node-label"><p>shipped</p></span></div></foreignObject></g></g><g class="node default" id="my-svg-state-root_end-20" data-look="classic" transform="translate(5018.9375, 476)"><g class="outer-path"><path d="M7 0 C7 0.40517908122283747, 6.964012880168563 0.816513743121899, 6.893654271085456 1.2155372436685123 C6.823295662002349 1.6145607442151257, 6.716427752933756 2.013397210557766, 6.5778483455013586 2.394141003279681 C6.439268938068961 2.7748847960015954, 6.26476736710249 3.149104622578984, 6.062177826491071 3.4999999999999996 C5.859588285879653 3.8508953774210153, 5.622755194947063 4.189128084166967, 5.362311101832846 4.499513267805774 C5.10186700871863 4.809898451444582, 4.809898451444583 5.10186700871863, 4.499513267805775 5.362311101832846 C4.189128084166968 5.622755194947063, 3.8508953774210166 5.859588285879652, 3.500000000000001 6.06217782649107 C3.149104622578985 6.264767367102489, 2.7748847960015963 6.439268938068961, 2.3941410032796817 6.5778483455013586 C2.013397210557767 6.716427752933756, 1.6145607442151264 6.823295662002349, 1.2155372436685128 6.893654271085456 C0.8165137431218992 6.964012880168563, 0.4051790812228379 7, 4.286263797015736e-16 7 C-0.405179081222837 7, -0.8165137431218985 6.964012880168563, -1.2155372436685121 6.893654271085456 C-1.6145607442151257 6.823295662002349, -2.0133972105577667 6.716427752933756, -2.394141003279681 6.5778483455013586 C-2.774884796001595 6.439268938068961, -3.149104622578983 6.26476736710249, -3.4999999999999982 6.062177826491071 C-3.8508953774210135 5.859588285879653, -4.189128084166966 5.6227551949470636, -4.499513267805773 5.362311101832848 C-4.809898451444581 5.101867008718632, -5.101867008718628 4.809898451444586, -5.3623111018328435 4.499513267805779 C-5.622755194947059 4.189128084166971, -5.859588285879649 3.8508953774210206, -6.062177826491068 3.5000000000000053 C-6.264767367102486 3.14910462257899, -6.439268938068958 2.774884796001602, -6.577848345501356 2.394141003279688 C-6.716427752933754 2.0133972105577738, -6.823295662002347 1.614560744215134, -6.893654271085454 1.215537243668521 C-6.9640128801685615 0.816513743121908, -6.999999999999999 0.4051790812228472, -7 1.0183126166254463e-14 C-7.000000000000001 -0.40517908122282686, -6.964012880168565 -0.8165137431218878, -6.893654271085459 -1.215537243668501 C-6.823295662002352 -1.6145607442151142, -6.716427752933759 -2.0133972105577542, -6.577848345501363 -2.394141003279669 C-6.439268938068967 -2.7748847960015834, -6.264767367102496 -3.149104622578972, -6.062177826491078 -3.4999999999999876 C-5.859588285879661 -3.8508953774210033, -5.6227551949470715 -4.1891280841669545, -5.362311101832856 -4.499513267805763 C-5.10186700871864 -4.809898451444571, -4.809898451444594 -5.10186700871862, -4.499513267805787 -5.362311101832836 C-4.189128084166979 -5.622755194947053, -3.850895377421028 -5.859588285879643, -3.5000000000000133 -6.062177826491062 C-3.1491046225789985 -6.264767367102482, -2.774884796001611 -6.439268938068954, -2.3941410032796973 -6.577848345501353 C-2.0133972105577835 -6.716427752933752, -1.6145607442151435 -6.823295662002345, -1.2155372436685306 -6.893654271085453 C-0.8165137431219176 -6.9640128801685615, -0.40517908122285695 -6.999999999999999, -1.9937625952807352e-14 -7 C0.4051790812228171 -7.000000000000001, 0.8165137431218781 -6.964012880168565, 1.2155372436684913 -6.89365427108546 C1.6145607442151044 -6.823295662002354, 2.013397210557745 -6.716427752933763, 2.3941410032796595 -6.5778483455013665 C2.774884796001574 -6.43926893806897, 3.149104622578963 -6.2647673671025, 3.499999999999979 -6.062177826491083 C3.8508953774209953 -5.859588285879665, 4.189128084166947 -5.622755194947077, 4.499513267805756 -5.362311101832862 C4.809898451444564 -5.1018670087186475, 5.101867008718613 -4.809898451444602, 5.362311101832829 -4.499513267805796 C5.622755194947046 -4.189128084166989, 5.859588285879637 -3.8508953774210393, 6.062177826491056 -3.500000000000025 C6.2647673671024755 -3.1491046225790105, 6.439268938068949 -2.774884796001623, 6.577848345501348 -2.3941410032797092 C6.716427752933747 -2.0133972105577955, 6.823295662002342 -1.6145607442151562, 6.893654271085451 -1.2155372436685434 C6.96401288016856 -0.8165137431219307, 6.982275711847575 -0.2025895406114567, 7 -3.2800750208310675e-14 C7.017724288152425 0.2025895406113911, 7.017724288152424 -0.2025895406114242, 7 0" stroke="none" stroke-width="0" fill="#ECECFF" style=""/><path d="M7 0 C7 0.40517908122283747, 6.964012880168563 0.816513743121899, 6.893654271085456 1.2155372436685123 C6.823295662002349 1.6145607442151257, 6.716427752933756 2.013397210557766, 6.5778483455013586 2.394141003279681 C6.439268938068961 2.7748847960015954, 6.26476736710249 3.149104622578984, 6.062177826491071 3.4999999999999996 C5.859588285879653 3.8508953774210153, 5.622755194947063 4.189128084166967, 5.362311101832846 4.499513267805774 C5.10186700871863 4.809898451444582, 4.809898451444583 5.10186700871863, 4.499513267805775 5.362311101832846 C4.189128084166968 5.622755194947063, 3.8508953774210166 5.859588285879652, 3.500000000000001 6.06217782649107 C3.149104622578985 6.264767367102489, 2.7748847960015963 6.439268938068961, 2.3941410032796817 6.5778483455013586 C2.013397210557767 6.716427752933756, 1.6145607442151264 6.823295662002349, 1.2155372436685128 6.893654271085456 C0.8165137431218992 6.964012880168563, 0.4051790812228379 7, 4.286263797015736e-16 7 C-0.405179081222837 7, -0.8165137431218985 6.964012880168563, -1.2155372436685121 6.893654271085456 C-1.6145607442151257 6.823295662002349, -2.0133972105577667 6.716427752933756, -2.394141003279681 6.5778483455013586 C-2.774884796001595 6.439268938068961, -3.149104622578983 6.26476736710249, -3.4999999999999982 6.062177826491071 C-3.8508953774210135 5.859588285879653, -4.189128084166966 5.6227551949470636, -4.499513267805773 5.362311101832848 C-4.809898451444581 5.101867008718632, -5.101867008718628 4.809898451444586, -5.3623111018328435 4.499513267805779 C-5.622755194947059 4.189128084166971, -5.859588285879649 3.8508953774210206, -6.062177826491068 3.5000000000000053 C-6.264767367102486 3.14910462257899, -6.439268938068958 2.774884796001602, -6.577848345501356 2.394141003279688 C-6.716427752933754 2.0133972105577738, -6.823295662002347 1.614560744215134, -6.893654271085454 1.215537243668521 C-6.9640128801685615 0.816513743121908, -6.999999999999999 0.4051790812228472, -7 1.0183126166254463e-14 C-7.000000000000001 -0.40517908122282686, -6.964012880168565 -0.8165137431218878, -6.893654271085459 -1.215537243668501 C-6.823295662002352 -1.6145607442151142, -6.716427752933759 -2.0133972105577542, -6.577848345501363 -2.394141003279669 C-6.439268938068967 -2.7748847960015834, -6.264767367102496 -3.149104622578972, -6.062177826491078 -3.4999999999999876 C-5.859588285879661 -3.8508953774210033, -5.6227551949470715 -4.1891280841669545, -5.362311101832856 -4.499513267805763 C-5.10186700871864 -4.809898451444571, -4.809898451444594 -5.10186700871862, -4.499513267805787 -5.362311101832836 C-4.189128084166979 -5.622755194947053, -3.850895377421028 -5.859588285879643, -3.5000000000000133 -6.062177826491062 C-3.1491046225789985 -6.264767367102482, -2.774884796001611 -6.439268938068954, -2.3941410032796973 -6.577848345501353 C-2.0133972105577835 -6.716427752933752, -1.6145607442151435 -6.823295662002345, -1.2155372436685306 -6.893654271085453 C-0.8165137431219176 -6.9640128801685615, -0.40517908122285695 -6.999999999999999, -1.9937625952807352e-14 -7 C0.4051790812228171 -7.000000000000001, 0.8165137431218781 -6.964012880168565, 1.2155372436684913 -6.89365427108546 C1.6145607442151044 -6.823295662002354, 2.013397210557745 -6.716427752933763, 2.3941410032796595 -6.5778483455013665 C2.774884796001574 -6.43926893806897, 3.149104622578963 -6.2647673671025, 3.499999999999979 -6.062177826491083 C3.8508953774209953 -5.859588285879665, 4.189128084166947 -5.622755194947077, 4.499513267805756 -5.362311101832862 C4.809898451444564 -5.1018670087186475, 5.101867008718613 -4.809898451444602, 5.362311101832829 -4.499513267805796 C5.622755194947046 -4.189128084166989, 5.859588285879637 -3.8508953774210393, 6.062177826491056 -3.500000000000025 C6.2647673671024755 -3.1491046225790105, 6.439268938068949 -2.774884796001623, 6.577848345501348 -2.3941410032797092 C6.716427752933747 -2.0133972105577955, 6.823295662002342 -1.6145607442151562, 6.893654271085451 -1.2155372436685434 C6.96401288016856 -0.8165137431219307, 6.982275711847575 -0.2025895406114567, 7 -3.2800750208310675e-14 C7.017724288152425 0.2025895406113911, 7.017724288152424 -0.2025895406114242, 7 0" stroke="#333333" stroke-width="2" fill="none" stroke-dasharray="0 0" style=""/><g><path d="M2.5 0 C2.5 0.14470681472244193, 2.487147457203058 0.29161205111496386, 2.46201938253052 0.4341204441673258 C2.436891307857982 0.5766288372196877, 2.3987241974763416 0.7190704323420595, 2.3492315519647713 0.8550503583141718 C2.299738906453201 0.991030284286284, 2.2374169168223177 1.124680222349637, 2.165063509461097 1.2499999999999998 C2.092710102099876 1.3753197776503625, 2.0081268553382365 1.496117172916774, 1.915111107797445 1.6069690242163481 C1.8220953602566536 1.7178208755159223, 1.7178208755159226 1.8220953602566536, 1.6069690242163484 1.915111107797445 C1.4961171729167742 2.0081268553382365, 1.375319777650363 2.0927101020998755, 1.2500000000000002 2.1650635094610964 C1.1246802223496375 2.2374169168223172, 0.9910302842862845 2.2997389064532, 0.8550503583141721 2.349231551964771 C0.7190704323420597 2.3987241974763416, 0.576628837219688 2.436891307857982, 0.43412044416732604 2.46201938253052 C0.291612051114964 2.487147457203058, 0.14470681472244212 2.5, 1.5308084989341916e-16 2.5 C-0.1447068147224418 2.5, -0.2916120511149638 2.487147457203058, -0.43412044416732576 2.46201938253052 C-0.5766288372196877 2.436891307857982, -0.7190704323420595 2.3987241974763416, -0.8550503583141718 2.3492315519647713 C-0.991030284286284 2.299738906453201, -1.124680222349637 2.2374169168223177, -1.2499999999999996 2.165063509461097 C-1.375319777650362 2.092710102099876, -1.4961171729167733 2.008126855338237, -1.6069690242163475 1.9151111077974459 C-1.7178208755159217 1.8220953602566548, -1.822095360256653 1.7178208755159234, -1.9151111077974443 1.6069690242163495 C-2.0081268553382357 1.4961171729167755, -2.0927101020998746 1.3753197776503645, -2.1650635094610955 1.250000000000002 C-2.2374169168223164 1.1246802223496395, -2.2997389064531992 0.9910302842862865, -2.34923155196477 0.8550503583141743 C-2.3987241974763407 0.7190704323420621, -2.436891307857981 0.5766288372196907, -2.4620193825305194 0.434120444167329 C-2.487147457203058 0.29161205111496724, -2.5 0.14470681472244545, -2.5 3.636830773662308e-15 C-2.5 -0.14470681472243818, -2.4871474572030587 -0.2916120511149599, -2.4620193825305208 -0.4341204441673218 C-2.436891307857983 -0.5766288372196837, -2.398724197476343 -0.7190704323420553, -2.3492315519647726 -0.8550503583141675 C-2.2997389064532023 -0.9910302842862798, -2.23741691682232 -1.1246802223496328, -2.165063509461099 -1.2499999999999956 C-2.092710102099878 -1.3753197776503583, -2.00812685533824 -1.4961171729167695, -1.9151111077974488 -1.606969024216344 C-1.8220953602566576 -1.7178208755159183, -1.7178208755159263 -1.82209536025665, -1.6069690242163523 -1.9151111077974416 C-1.4961171729167784 -2.0081268553382334, -1.3753197776503672 -2.0927101020998724, -1.2500000000000047 -2.1650635094610937 C-1.1246802223496422 -2.237416916822315, -0.9910302842862897 -2.299738906453198, -0.8550503583141776 -2.3492315519647686 C-0.7190704323420656 -2.3987241974763394, -0.5766288372196942 -2.4368913078579806, -0.43412044416733236 -2.462019382530519 C-0.29161205111497057 -2.4871474572030574, -0.1447068147224489 -2.4999999999999996, -7.120580697431198e-15 -2.5 C0.14470681472243463 -2.5000000000000004, 0.29161205111495647 -2.487147457203059, 0.4341204441673183 -2.4620193825305217 C0.5766288372196802 -2.436891307857984, 0.7190704323420518 -2.3987241974763442, 0.8550503583141642 -2.349231551964774 C0.9910302842862766 -2.2997389064532037, 1.1246802223496295 -2.2374169168223212, 1.2499999999999925 -2.165063509461101 C1.3753197776503554 -2.0927101020998804, 1.4961171729167668 -2.008126855338242, 1.6069690242163412 -1.915111107797451 C1.7178208755159157 -1.82209536025666, 1.8220953602566472 -1.7178208755159294, 1.915111107797439 -1.6069690242163557 C2.0081268553382308 -1.496117172916782, 2.09271010209987 -1.3753197776503712, 2.1650635094610915 -1.2500000000000089 C2.237416916822313 -1.1246802223496466, 2.299738906453196 -0.9910302842862939, 2.3492315519647673 -0.855050358314182 C2.3987241974763385 -0.71907043234207, 2.4368913078579792 -0.5766288372196986, 2.462019382530518 -0.4341204441673369 C2.487147457203057 -0.29161205111497523, 2.4936698970884197 -0.07235340736123454, 2.5 -1.1714553645825241e-14 C2.5063301029115803 0.07235340736121111, 2.50633010291158 -0.07235340736122292, 2.5 0" stroke="none" stroke-width="0" fill="#9370DB" style=""/><path d="M2.5 0 C2.5 0.14470681472244193, 2.487147457203058 0.29161205111496386, 2.46201938253052 0.4341204441673258 C2.436891307857982 0.5766288372196877, 2.3987241974763416 0.7190704323420595, 2.3492315519647713 0.8550503583141718 C2.299738906453201 0.991030284286284, 2.2374169168223177 1.124680222349637, 2.165063509461097 1.2499999999999998 C2.092710102099876 1.3753197776503625, 2.0081268553382365 1.496117172916774, 1.915111107797445 1.6069690242163481 C1.8220953602566536 1.7178208755159223, 1.7178208755159226 1.8220953602566536, 1.6069690242163484 1.915111107797445 C1.4961171729167742 2.0081268553382365, 1.375319777650363 2.0927101020998755, 1.2500000000000002 2.1650635094610964 C1.1246802223496375 2.2374169168223172, 0.9910302842862845 2.2997389064532, 0.8550503583141721 2.349231551964771 C0.7190704323420597 2.3987241974763416, 0.576628837219688 2.436891307857982, 0.43412044416732604 2.46201938253052 C0.291612051114964 2.487147457203058, 0.14470681472244212 2.5, 1.5308084989341916e-16 2.5 C-0.1447068147224418 2.5, -0.2916120511149638 2.487147457203058, -0.43412044416732576 2.46201938253052 C-0.5766288372196877 2.436891307857982, -0.7190704323420595 2.3987241974763416, -0.8550503583141718 2.3492315519647713 C-0.991030284286284 2.299738906453201, -1.124680222349637 2.2374169168223177, -1.2499999999999996 2.165063509461097 C-1.375319777650362 2.092710102099876, -1.4961171729167733 2.008126855338237, -1.6069690242163475 1.9151111077974459 C-1.7178208755159217 1.8220953602566548, -1.822095360256653 1.7178208755159234, -1.9151111077974443 1.6069690242163495 C-2.0081268553382357 1.4961171729167755, -2.0927101020998746 1.3753197776503645, -2.1650635094610955 1.250000000000002 C-2.2374169168223164 1.1246802223496395, -2.2997389064531992 0.9910302842862865, -2.34923155196477 0.8550503583141743 C-2.3987241974763407 0.7190704323420621, -2.436891307857981 0.5766288372196907, -2.4620193825305194 0.434120444167329 C-2.487147457203058 0.29161205111496724, -2.5 0.14470681472244545, -2.5 3.636830773662308e-15 C-2.5 -0.14470681472243818, -2.4871474572030587 -0.2916120511149599, -2.4620193825305208 -0.4341204441673218 C-2.436891307857983 -0.5766288372196837, -2.398724197476343 -0.7190704323420553, -2.3492315519647726 -0.8550503583141675 C-2.2997389064532023 -0.9910302842862798, -2.23741691682232 -1.1246802223496328, -2.165063509461099 -1.2499999999999956 C-2.092710102099878 -1.3753197776503583, -2.00812685533824 -1.4961171729167695, -1.9151111077974488 -1.606969024216344 C-1.8220953602566576 -1.7178208755159183, -1.7178208755159263 -1.82209536025665, -1.6069690242163523 -1.9151111077974416 C-1.4961171729167784 -2.0081268553382334, -1.3753197776503672 -2.0927101020998724, -1.2500000000000047 -2.1650635094610937 C-1.1246802223496422 -2.237416916822315, -0.9910302842862897 -2.299738906453198, -0.8550503583141776 -2.3492315519647686 C-0.7190704323420656 -2.3987241974763394, -0.5766288372196942 -2.4368913078579806, -0.43412044416733236 -2.462019382530519 C-0.29161205111497057 -2.4871474572030574, -0.1447068147224489 -2.4999999999999996, -7.120580697431198e-15 -2.5 C0.14470681472243463 -2.5000000000000004, 0.29161205111495647 -2.487147457203059, 0.4341204441673183 -2.4620193825305217 C0.5766288372196802 -2.436891307857984, 0.7190704323420518 -2.3987241974763442, 0.8550503583141642 -2.349231551964774 C0.9910302842862766 -2.2997389064532037, 1.1246802223496295 -2.2374169168223212, 1.2499999999999925 -2.165063509461101 C1.3753197776503554 -2.0927101020998804, 1.4961171729167668 -2.008126855338242, 1.6069690242163412 -1.915111107797451 C1.7178208755159157 -1.82209536025666, 1.8220953602566472 -1.7178208755159294, 1.915111107797439 -1.6069690242163557 C2.0081268553382308 -1.496117172916782, 2.09271010209987 -1.3753197776503712, 2.1650635094610915 -1.2500000000000089 C2.237416916822313 -1.1246802223496466, 2.299738906453196 -0.9910302842862939, 2.3492315519647673 -0.855050358314182 C2.3987241974763385 -0.71907043234207, 2.4368913078579792 -0.5766288372196986, 2.462019382530518 -0.4341204441673369 C2.487147457203057 -0.29161205111497523, 2.4936698970884197 -0.07235340736123454, 2.5 -1.1714553645825241e-14 C2.5063301029115803 0.07235340736121111, 2.50633010291158 -0.07235340736122292, 2.5 0" stroke="#9370DB" stroke-width="2" fill="none" stroke-dasharray="0 0" style=""/></g></g></g><g class="node statediagram-note" id="my-svg-state-hitl----note-21" data-look="classic" transform="translate(3210.015625, 118)"><g class="basic label-container outer-path"><path d="M-115 -75 L115 -75 L115 75 L-115 75" stroke="none" stroke-width="0" fill="#fff5ad" style=""/><path d="M-115 -75 C-43.509599361448466 -75, 27.98080127710307 -75, 115 -75 M-115 -75 C-55.610494804825954 -75, 3.779010390348091 -75, 115 -75 M115 -75 C115 -25.459726184487764, 115 24.080547631024473, 115 75 M115 -75 C115 -31.401748183996602, 115 12.196503632006795, 115 75 M115 75 C25.15419282831948 75, -64.69161434336104 75, -115 75 M115 75 C55.7277474760054 75, -3.5445050479892046 75, -115 75 M-115 75 C-115 32.490824606663935, -115 -10.01835078667213, -115 -75 M-115 75 C-115 43.254711618849704, -115 11.509423237699409, -115 -75" stroke="#aaaa33" stroke-width="1.3" fill="none" stroke-dasharray="0 0" style=""/></g><g class="label noteLabel" style="" transform="translate(-100, -60)"><rect/><foreignObject width="200" height="120"><div xmlns="http://www.w3.org/1999/xhtml" style="display: table; white-space: break-spaces; line-height: 1.5; max-width: 200px; text-align: center; width: 200px;"><span class="nodeLabel markdown-node-label"><p>HITLPanel opens on Boardroom,<br />6s countdown, operator can<br />cancel / approve / reject.</p></span></div></foreignObject></g></g><g class="node statediagram-note" id="my-svg-state-preparing----note-22" data-look="classic" transform="translate(3694.765625, 265.5)"><g class="basic label-container outer-path"><path d="M-98.15625 -39 L98.15625 -39 L98.15625 39 L-98.15625 39" stroke="none" stroke-width="0" fill="#fff5ad" style=""/><path d="M-98.15625 -39 C-40.94971844252667 -39, 16.256813114946667 -39, 98.15625 -39 M-98.15625 -39 C-45.65448330920422 -39, 6.847283381591566 -39, 98.15625 -39 M98.15625 -39 C98.15625 -8.527785697051506, 98.15625 21.944428605896988, 98.15625 39 M98.15625 -39 C98.15625 -22.120121518058667, 98.15625 -5.240243036117334, 98.15625 39 M98.15625 39 C21.914274771254156 39, -54.32770045749169 39, -98.15625 39 M98.15625 39 C21.843558787730274 39, -54.46913242453945 39, -98.15625 39 M-98.15625 39 C-98.15625 11.34059245623428, -98.15625 -16.31881508753144, -98.15625 -39 M-98.15625 39 C-98.15625 23.003126320965894, -98.15625 7.006252641931788, -98.15625 -39" stroke="#aaaa33" stroke-width="1.3" fill="none" stroke-dasharray="0 0" style=""/></g><g class="label noteLabel" style="" transform="translate(-83.15625, -24)"><rect/><foreignObject width="166.3125" height="48"><div xmlns="http://www.w3.org/1999/xhtml" style="display: table-cell; white-space: nowrap; line-height: 1.5; max-width: 200px; text-align: center;"><span class="nodeLabel markdown-node-label"><p>Beat 1: scroll leaves,<br />boardroom desaturates</p></span></div></foreignObject></g></g><g class="node statediagram-note" id="my-svg-state-building----note-23" data-look="classic" transform="translate(4389.0625, 129.97499999962747)"><g class="basic label-container outer-path"><path d="M-115 -75 L115 -75 L115 75 L-115 75" stroke="none" stroke-width="0" fill="#fff5ad" style=""/><path d="M-115 -75 C-59.58353506630848 -75, -4.167070132616956 -75, 115 -75 M-115 -75 C-58.19734899781042 -75, -1.3946979956208452 -75, 115 -75 M115 -75 C115 -17.19322931461381, 115 40.61354137077238, 115 75 M115 -75 C115 -28.283298786347316, 115 18.433402427305367, 115 75 M115 75 C44.10128796807513 75, -26.797424063849746 75, -115 75 M115 75 C49.157543357698046 75, -16.68491328460391 75, -115 75 M-115 75 C-115 41.825649950405534, -115 8.651299900811068, -115 -75 M-115 75 C-115 17.35590350725117, -115 -40.28819298549766, -115 -75" stroke="#aaaa33" stroke-width="1.3" fill="none" stroke-dasharray="0 0" style=""/></g><g class="label noteLabel" style="" transform="translate(-100, -60)"><rect/><foreignObject width="200" height="120"><div xmlns="http://www.w3.org/1999/xhtml" style="display: table; white-space: break-spaces; line-height: 1.5; max-width: 200px; text-align: center; width: 200px;"><span class="nodeLabel markdown-node-label"><p>Split screen: boardroom<br />dim with progress ticker<br />(ticks on subagent tool_result),<br />factory full agent-flow</p></span></div></foreignObject></g></g><g class="node statediagram-note" id="my-svg-state-shipped----note-24" data-look="classic" transform="translate(5018.9375, 594.0250000003725)"><g class="basic label-container outer-path"><path d="M-93.625 -39 L93.625 -39 L93.625 39 L-93.625 39" stroke="none" stroke-width="0" fill="#fff5ad" style=""/><path d="M-93.625 -39 C-40.696640936747144 -39, 12.231718126505712 -39, 93.625 -39 M-93.625 -39 C-28.095057480537903 -39, 37.43488503892419 -39, 93.625 -39 M93.625 -39 C93.625 -22.815119695429836, 93.625 -6.630239390859671, 93.625 39 M93.625 -39 C93.625 -16.635446237441652, 93.625 5.729107525116696, 93.625 39 M93.625 39 C32.288913940742965 39, -29.04717211851407 39, -93.625 39 M93.625 39 C49.66261821543147 39, 5.700236430862944 39, -93.625 39 M-93.625 39 C-93.625 16.691831060005505, -93.625 -5.61633787998899, -93.625 -39 M-93.625 39 C-93.625 19.877801749914745, -93.625 0.7556034998294905, -93.625 -39" stroke="#aaaa33" stroke-width="1.3" fill="none" stroke-dasharray="0 0" style=""/></g><g class="label noteLabel" style="" transform="translate(-78.625, -24)"><rect/><foreignObject width="157.25" height="48"><div xmlns="http://www.w3.org/1999/xhtml" style="display: table-cell; white-space: nowrap; line-height: 1.5; max-width: 200px; text-align: center;"><span class="nodeLabel markdown-node-label"><p>Beat 3: scroll returns,<br />unicorn confetti</p></span></div></foreignObject></g></g><g class="label edgeLabel" id="building---building---1" transform="translate(4389.0625, 394.5)"><rect width="0.1" height="0.1"/><g class="label" style="" transform="translate(0, 0)"><rect/><foreignObject width="0" height="0"><div xmlns="http://www.w3.org/1999/xhtml" style="display: table-cell; white-space: nowrap; line-height: 1.5; max-width: 10px; text-align: center;"><span class="nodeLabel"></span></div></foreignObject></g></g><g class="label edgeLabel" id="building---building---2" transform="translate(4814.6875, 412.02500000037253)"><rect width="0.1" height="0.1"/><g class="label" style="" transform="translate(0, 0)"><rect/><foreignObject width="0" height="0"><div xmlns="http://www.w3.org/1999/xhtml" style="display: table-cell; white-space: nowrap; line-height: 1.5; max-width: 10px; text-align: center;"><span class="nodeLabel"></span></div></foreignObject></g></g></g></g></g><defs><filter id="my-svg-drop-shadow" height="130%" width="130%"><feDropShadow dx="4" dy="4" stdDeviation="0" flood-opacity="0.06" flood-color="#000000"/></filter></defs><defs><filter id="my-svg-drop-shadow-small" height="150%" width="150%"><feDropShadow dx="2" dy="2" stdDeviation="0" flood-opacity="0.06" flood-color="#000000"/></filter></defs></svg>